<svg width="1920" height="1080" xmlns="http://www.w3.org/2000/svg"><path d="M0 1080V154c99.046 4.126 198.092 8.251 282 19 83.908 10.749 152.678 28.121 216 13 63.322-15.121 121.197-62.736 194-57 72.803 5.736 160.536 64.821 258 57 97.464-7.821 204.66-82.55 275-88 70.34-5.45 103.822 58.379 181 84 77.178 25.621 198.05 13.035 291 2 92.95-11.035 157.975-20.517 223-30v926Z" fill="#7d7463" opacity=".086"/><path d="M0 1080V308c68.03 23.89 136.059 47.782 216 48 79.941.218 171.794-23.236 260-45 88.206-21.764 172.766-41.838 253-36 80.234 5.838 156.143 37.59 227 38 70.857.41 136.663-30.519 207-33 70.337-2.481 145.206 23.486 236 19 90.794-4.486 197.513-39.425 287-43 89.487-3.575 161.744 24.212 234 52v772Z" fill="#7d7463" opacity=".171"/><path d="M0 1080V462c67.118 15.93 134.235 31.858 223 30 88.765-1.858 199.177-21.504 283-46 83.823-24.496 141.059-53.843 208-37 66.941 16.843 143.59 79.875 223 96s161.584-14.657 257-32 204.073-21.246 287-14c82.927 7.246 140.122 25.642 209 28 68.878 2.358 149.44-11.32 230-25v618Z" fill="#7d7463" opacity=".257"/><path d="M0 1080V617c99.908 23.277 199.815 46.553 283 40 83.185-6.553 149.647-42.936 218-47 68.353-4.064 138.597 24.19 210 16 71.403-8.19 143.964-52.821 229-46 85.036 6.821 182.546 65.096 277 85 94.454 19.904 185.853 1.436 259-7 73.147-8.436 128.042-6.839 199-12s157.979-17.08 245-29v463Z" fill="#7d7463" opacity=".343"/><path d="M0 1080V771c66.108 7.276 132.217 14.552 211 22 78.783 7.448 170.241 15.07 264 18 93.759 2.93 189.82 1.17 264-18s126.482-55.75 199-47 165.252 62.83 242 82c76.748 19.17 137.509 3.43 219-2 81.491-5.43 183.712-.552 274-8 90.288-7.448 168.644-27.224 247-47v309Z" fill="#7d7463" opacity=".429"/><path d="M0 1080V925c60.02 14.93 120.038 29.859 204 15 83.962-14.859 191.866-59.505 269-64 77.134-4.495 123.498 31.162 210 37 86.502 5.838 213.143-18.143 300-33s133.93-20.59 198-2 145.134 61.505 242 63c96.866 1.495 209.533-38.43 295-48 85.467-9.57 143.733 11.215 202 32v155Z" fill="#7d7463" opacity=".514"/><path d="M0 1080v-1c75.02.181 150.04.362 219 11 68.96 10.638 131.86 31.733 229 35 97.14 3.267 228.517-11.295 314-21s125.071-14.554 187 0 146.197 48.51 219 27c72.803-21.51 134.14-98.483 230-104 95.86-5.517 226.246 60.424 319 81 92.754 20.576 147.877-4.212 203-29v1Z" fill="#7d7463" opacity=".6"/></svg>